<svg width="29" height="22" viewBox="0 0 29 22" fill="none" xmlns="http://www.w3.org/2000/svg">
<path fill-rule="evenodd" clip-rule="evenodd" d="M25.2882 0.866302C23.3915 0.866302 19.5389 1.87542 18.8648 4.49204C18.8543 4.51215 18.8342 4.58492 18.8122 4.69693C17.5924 3.9511 16.1582 3.51739 14.6254 3.51739C13.0246 3.51739 11.5368 3.99036 10.2835 4.7965C10.2577 4.63279 10.2261 4.5179 10.2136 4.49204C9.53959 1.87542 5.68694 0.869173 3.78934 0.868215C3.48775 0.868215 3.23786 0.894067 3.055 0.941938C2.03726 1.08364 0.922826 1.49054 1.00421 1.71266C1.75099 1.58532 2.12821 1.73085 2.11673 1.85149C2.09375 2.07744 1.64376 2.13775 1.78833 2.95252C2.06119 2.5571 2.44129 2.42115 2.74001 2.35796C3.04638 4.28141 4.38676 7.63908 6.8952 7.81333C7.11062 7.82865 7.31168 7.82769 7.50124 7.82386C6.90956 8.94595 6.57351 10.2241 6.57351 11.5808C6.57351 16.0299 10.1801 21.1856 14.6254 21.1856C19.0697 21.1856 22.6811 16.0299 22.6811 11.5808C22.6811 10.2251 22.3441 8.94979 21.7524 7.82865C21.8893 7.82776 22.0339 7.82386 22.1833 7.81333C24.6831 7.64004 26.0235 4.30152 26.3356 2.37615C26.6209 2.44604 26.9617 2.58966 27.2116 2.95252C27.3562 2.13775 26.9062 2.07744 26.8832 1.85149C26.8717 1.73085 27.249 1.58532 27.9957 1.71266C28.0733 1.50203 27.0785 1.12576 26.1077 0.965874C25.9229 0.900769 25.6395 0.866302 25.2882 0.866302V0.866302Z" fill="url(#paint0_linear_1066_163)" stroke="black" stroke-width="0.5" stroke-linejoin="round"/>
<path d="M14.3445 10.9347C14.3445 11.6331 14.0673 12.3029 13.5739 12.7968C13.0805 13.2906 12.4113 13.5681 11.7135 13.5681C11.0157 13.5681 10.3465 13.2906 9.85313 12.7968C9.35972 12.3029 9.08252 11.6331 9.08252 10.9347C9.08252 10.2363 9.35972 9.56651 9.85313 9.07266C10.3465 8.57881 11.0157 8.30136 11.7135 8.30136C12.4113 8.30136 13.0805 8.57881 13.5739 9.07266C14.0673 9.56651 14.3445 10.2363 14.3445 10.9347V10.9347Z" fill="white" stroke="black" stroke-width="0.5" stroke-linecap="round" stroke-linejoin="round"/>
<path d="M20.1713 10.9347C20.1713 11.6331 19.8941 12.3029 19.4007 12.7968C18.9073 13.2906 18.2381 13.5681 17.5403 13.5681C16.8425 13.5681 16.1733 13.2906 15.6799 12.7968C15.1865 12.3029 14.9093 11.6331 14.9093 10.9347C14.9093 10.2363 15.1865 9.56651 15.6799 9.07266C16.1733 8.57881 16.8425 8.30136 17.5403 8.30136C18.2381 8.30136 18.9073 8.57881 19.4007 9.07266C19.8941 9.56651 20.1713 10.2363 20.1713 10.9347V10.9347Z" fill="white" stroke="black" stroke-width="0.5" stroke-linecap="round" stroke-linejoin="round"/>
<path d="M13.5294 11.2547C13.5295 11.3664 13.5076 11.4771 13.4649 11.5804C13.4223 11.6837 13.3597 11.7775 13.2808 11.8566C13.2019 11.9356 13.1082 11.9984 13.005 12.0411C12.9019 12.0839 12.7913 12.106 12.6796 12.106C12.568 12.106 12.4574 12.0839 12.3543 12.0411C12.2511 11.9984 12.1574 11.9356 12.0785 11.8566C11.9996 11.7775 11.937 11.6837 11.8943 11.5804C11.8516 11.4771 11.8297 11.3664 11.8298 11.2547C11.8297 11.1429 11.8516 11.0322 11.8943 10.929C11.937 10.8257 11.9996 10.7318 12.0785 10.6528C12.1574 10.5737 12.2511 10.511 12.3543 10.4682C12.4574 10.4254 12.568 10.4034 12.6796 10.4034C12.7913 10.4034 12.9019 10.4254 13.005 10.4682C13.1082 10.511 13.2019 10.5737 13.2808 10.6528C13.3597 10.7318 13.4223 10.8257 13.4649 10.929C13.5076 11.0322 13.5295 11.1429 13.5294 11.2547V11.2547Z" fill="black"/>
<path d="M17.4166 11.2547C17.4167 11.3664 17.3948 11.4771 17.3522 11.5804C17.3095 11.6837 17.2469 11.7775 17.168 11.8566C17.0891 11.9356 16.9954 11.9984 16.8922 12.0411C16.7891 12.0839 16.6785 12.106 16.5668 12.106C16.4552 12.106 16.3446 12.0839 16.2415 12.0411C16.1383 11.9984 16.0446 11.9356 15.9657 11.8566C15.8868 11.7775 15.8242 11.6837 15.7815 11.5804C15.7389 11.4771 15.7169 11.3664 15.717 11.2547C15.7169 11.1429 15.7389 11.0322 15.7815 10.929C15.8242 10.8257 15.8868 10.7318 15.9657 10.6528C16.0446 10.5737 16.1383 10.511 16.2415 10.4682C16.3446 10.4254 16.4552 10.4034 16.5668 10.4034C16.6785 10.4034 16.7891 10.4254 16.8922 10.4682C16.9954 10.511 17.0891 10.5737 17.168 10.6528C17.2469 10.7318 17.3095 10.8257 17.3522 10.929C17.3948 11.0322 17.4167 11.1429 17.4166 11.2547Z" fill="black"/>
<path fill-rule="evenodd" clip-rule="evenodd" d="M13.2668 15.9868C13.6958 15.5282 15.5177 15.4286 15.8988 16.0433C16.2798 16.6589 15.3272 17.9342 14.5823 17.8768C13.8413 17.8193 12.8647 16.4148 13.2668 15.9868Z" fill="black"/>
<path fill-rule="evenodd" clip-rule="evenodd" d="M8.47489 6.63859C8.19246 2.5485 3.98365 1.61693 3.78067 2.10234C3.57866 2.58871 4.54948 8.05652 8.47489 6.63859Z" fill="#74401B" stroke="black" stroke-width="0.5" stroke-linejoin="round"/>
<path fill-rule="evenodd" clip-rule="evenodd" d="M20.4695 6.63859C20.7519 2.5485 24.9607 1.61693 25.1637 2.10234C25.3657 2.58871 24.3939 8.05652 20.4695 6.63859Z" fill="url(#paint1_linear_1066_163)" stroke="black" stroke-width="0.5" stroke-linejoin="round"/>
<path d="M22.0464 8.46054C22.1929 9.06754 22.2714 9.70327 22.2714 10.3543C22.2714 14.8034 18.661 19.9572 14.2157 19.9572C10.9758 19.9572 8.18491 17.218 6.90771 14.0097C7.89673 17.714 10.9777 21.1875 14.6255 21.1875C19.0708 21.1875 22.6812 16.0299 22.6812 11.5808C22.6812 10.474 22.4552 9.42083 22.0502 8.46054H22.0464Z" fill="black" fill-opacity="0.31373"/>
<defs>
<linearGradient id="paint0_linear_1066_163" x1="0.809656" y1="11.0259" x2="28.1902" y2="11.0259" gradientUnits="userSpaceOnUse">
<stop stop-color="#D07839"/>
</linearGradient>
<linearGradient id="paint1_linear_1066_163" x1="26.5077" y1="4.72017" x2="30.0471" y2="4.72017" gradientUnits="userSpaceOnUse">
<stop stop-color="#74401B"/>
</linearGradient>
</defs>
</svg>
